<svg xmlns="http://www.w3.org/2000/svg" xmlns:xlink="http://www.w3.org/1999/xlink" width="20.10009765625" height="14" viewBox="0 0 20.10009765625 14" fill="none">
    <path d="M11 2C11.5523 2 12 1.55228 12 1C12 0.447715 11.5523 0 11 0L1 0C0.447715 0 0 0.447715 0 1C0 1.55228 0.447715 2 1 2L11 2ZM20.1001 7C20.1001 7.55228 19.6524 8 19.1001 8L1.1001 8C0.547815 8 0.1001 7.55228 0.1001 7C0.1001 6.44772 0.547815 6 1.1001 6L19.1001 6C19.6524 6 20.1001 6.44772 20.1001 7ZM20 13C20 13.5523 19.5523 14 19 14L9 14C8.44771 14 8 13.5523 8 13C8 12.4477 8.44771 12 9 12L19 12C19.5523 12 20 12.4477 20 13Z" fill-rule="evenodd"  fill="#2E344D" >
    </path>
</svg>
